<svg id="visual" viewBox="0 0 960 540" width="960" height="540" xmlns="http://www.w3.org/2000/svg" xmlns:xlink="http://www.w3.org/1999/xlink" version="1.1"><path d="M0 174L20 165C40 156 80 138 120 129C160 120 200 120 240 121.8C280 123.7 320 127.3 360 131.8C400 136.3 440 141.7 480 139.8C520 138 560 129 600 126.3C640 123.7 680 127.3 720 136.3C760 145.3 800 159.7 840 163.2C880 166.7 920 159.3 940 155.7L960 152L960 0L940 0C920 0 880 0 840 0C800 0 760 0 720 0C680 0 640 0 600 0C560 0 520 0 480 0C440 0 400 0 360 0C320 0 280 0 240 0C200 0 160 0 120 0C80 0 40 0 20 0L0 0Z" fill="#13161b"></path><path d="M0 249L20 240C40 231 80 213 120 205C160 197 200 199 240 202.7C280 206.3 320 211.7 360 216.2C400 220.7 440 224.3 480 219C520 213.7 560 199.3 600 197.5C640 195.7 680 206.3 720 217C760 227.7 800 238.3 840 238.3C880 238.3 920 227.7 940 222.3L960 217L960 150L940 153.7C920 157.3 880 164.7 840 161.2C800 157.7 760 143.3 720 134.3C680 125.3 640 121.7 600 124.3C560 127 520 136 480 137.8C440 139.7 400 134.3 360 129.8C320 125.3 280 121.7 240 119.8C200 118 160 118 120 127C80 136 40 154 20 163L0 172Z" fill="#15191f"></path><path d="M0 401L20 394.7C40 388.3 80 375.7 120 372C160 368.3 200 373.7 240 374.5C280 375.3 320 371.7 360 370.8C400 370 440 372 480 372C520 372 560 370 600 371.7C640 373.3 680 378.7 720 379.7C760 380.7 800 377.3 840 373.8C880 370.3 920 366.7 940 364.8L960 363L960 215L940 220.3C920 225.7 880 236.3 840 236.3C800 236.3 760 225.7 720 215C680 204.3 640 193.7 600 195.5C560 197.3 520 211.7 480 217C440 222.3 400 218.7 360 214.2C320 209.7 280 204.3 240 200.7C200 197 160 195 120 203C80 211 40 229 20 238L0 247Z" fill="#161c22"></path><path d="M0 476L20 476C40 476 80 476 120 475.2C160 474.3 200 472.7 240 472.7C280 472.7 320 474.3 360 474.3C400 474.3 440 472.7 480 471.8C520 471 560 471 600 471.8C640 472.7 680 474.3 720 477C760 479.7 800 483.3 840 483.3C880 483.3 920 479.7 940 477.8L960 476L960 361L940 362.8C920 364.7 880 368.3 840 371.8C800 375.3 760 378.7 720 377.7C680 376.7 640 371.3 600 369.7C560 368 520 370 480 370C440 370 400 368 360 368.8C320 369.7 280 373.3 240 372.5C200 371.7 160 366.3 120 370C80 373.7 40 386.3 20 392.7L0 399Z" fill="#252d35"></path><path d="M0 541L20 541C40 541 80 541 120 541C160 541 200 541 240 541C280 541 320 541 360 541C400 541 440 541 480 541C520 541 560 541 600 541C640 541 680 541 720 541C760 541 800 541 840 541C880 541 920 541 940 541L960 541L960 474L940 475.8C920 477.7 880 481.3 840 481.3C800 481.3 760 477.7 720 475C680 472.3 640 470.7 600 469.8C560 469 520 469 480 469.8C440 470.7 400 472.3 360 472.3C320 472.3 280 470.7 240 470.7C200 470.7 160 472.3 120 473.2C80 474 40 474 20 474L0 474Z" fill="#343f4a"></path></svg>